<?xml version="1.0" encoding="UTF-8" standalone="no"?>
<svg
   id="Layer_2"
   data-name="Layer 2"
   viewBox="0 0 4347.94 2199.91"
   width="26"
   height="18"
   version="1.1"
   sodipodi:docname="penguins.svg"
   inkscape:version="1.3.2 (091e20e, 2023-11-25)"
   xmlns:inkscape="http://www.inkscape.org/namespaces/inkscape"
   xmlns:sodipodi="http://sodipodi.sourceforge.net/DTD/sodipodi-0.dtd"
   xmlns="http://www.w3.org/2000/svg"
   xmlns:svg="http://www.w3.org/2000/svg">
  <sodipodi:namedview
     id="namedview90"
     pagecolor="#ffffff"
     bordercolor="#000000"
     borderopacity="0.25"
     inkscape:showpageshadow="2"
     inkscape:pageopacity="0.0"
     inkscape:pagecheckerboard="0"
     inkscape:deskcolor="#d1d1d1"
     showgrid="false"
     inkscape:zoom="13.111111"
     inkscape:cx="12.966102"
     inkscape:cy="8.9618645"
     inkscape:window-width="1312"
     inkscape:window-height="456"
     inkscape:window-x="250"
     inkscape:window-y="147"
     inkscape:window-maximized="0"
     inkscape:current-layer="Layer_2" />
  <defs
     id="defs80">
    <style
       id="style78">
      .cls-1 {
        stroke-width: 0px;
      }
    </style>
  </defs>
  <g
     id="Layer_1-2"
     data-name="Layer 1">
    <g
       id="g86">
      <path
         class="cls-1"
         d="m3997.75,499.22s-.02-.03-.01-.04c-1.73-5.12-3.51-10.22-5.34-15.29-.02-.03-.02-.06-.03-.08C3890.29,201.64,3620,0,3302.61,0c-405,0-733.31,328.31-733.31,733.3v733.3c0,405-328.31,733.31-733.3,733.31h1466.61c404.99,0,733.3-328.31,733.3-733.31v-366.65c0-183.93,135.44-336.23,312.03-362.61-2.22.05-4.45.07-6.68.07-157.3,0-291.46-99.05-343.51-238.19Zm-977.15,233.67c0-155.07,125.7-280.77,280.77-280.77s280.77,125.7,280.77,280.77v.41c-.03,18.15-1.78,35.9-5.09,53.09-24.91,129.08-138.23,226.68-274.44,227.26-.41.01-.83.01-1.24.01-136.45,0-250.15-97.33-275.5-226.34-3.43-17.48-5.24-35.54-5.27-54.02v-.41Z"
         id="path82" />
      <path
         class="cls-1"
         d="m2161.75,499.22s-.02-.03-.01-.04c-1.73-5.12-3.51-10.22-5.34-15.29-.02-.03-.02-.06-.03-.08C2054.29,201.64,1784,0,1466.61,0c-405,0-733.31,328.31-733.31,733.3v733.3c0,405-328.31,733.31-733.3,733.31h1466.61c404.99,0,733.3-328.31,733.3-733.31v-366.65c0-183.93,135.44-336.23,312.03-362.61-2.22.05-4.45.07-6.68.07-157.3,0-291.46-99.05-343.51-238.19Zm-977.15,233.67c0-155.07,125.7-280.77,280.77-280.77s280.77,125.7,280.77,280.77v.41c-.03,18.15-1.78,35.9-5.09,53.09-24.91,129.08-138.23,226.68-274.44,227.26-.41.01-.83.01-1.24.01-136.45,0-250.15-97.33-275.5-226.34-3.43-17.48-5.24-35.54-5.27-54.02v-.41Z"
         id="path84" />
    </g>
  </g>
</svg>
