<?xml version="1.0" encoding="UTF-8" standalone="no"?>
<!-- Created with Inkscape (http://www.inkscape.org/) -->

<svg
   width="29.333334"
   height="21.333334"
   viewBox="0 0 29.333334 21.333334"
   version="1.1"
   id="svg1"
   inkscape:version="1.3.2 (091e20e, 2023-11-25)"
   sodipodi:docname="penguins.svg"
   xmlns:inkscape="http://www.inkscape.org/namespaces/inkscape"
   xmlns:sodipodi="http://sodipodi.sourceforge.net/DTD/sodipodi-0.dtd"
   xmlns="http://www.w3.org/2000/svg"
   xmlns:svg="http://www.w3.org/2000/svg">
  <sodipodi:namedview
     id="namedview1"
     pagecolor="#ffffff"
     bordercolor="#666666"
     borderopacity="1.0"
     inkscape:showpageshadow="2"
     inkscape:pageopacity="0.0"
     inkscape:pagecheckerboard="0"
     inkscape:deskcolor="#d1d1d1"
     inkscape:document-units="mm"
     showguides="true"
     inkscape:zoom="26.448267"
     inkscape:cx="15.842248"
     inkscape:cy="10.794658"
     inkscape:window-width="1616"
     inkscape:window-height="930"
     inkscape:window-x="52"
     inkscape:window-y="25"
     inkscape:window-maximized="0"
     inkscape:current-layer="layer1" />
  <defs
     id="defs1" />
  <g
     inkscape:label="Layer 1"
     inkscape:groupmode="layer"
     id="layer1">
    <path
       id="path3"
       style="fill:#000000;fill-opacity:1;fill-rule:nonzero;stroke:none;stroke-width:1.33333"
       d="M 5.5800781 0.001953125 C 0.87875435 0.001953125 0.00390625 1.0194676 0.00390625 5.578125 L 0.00390625 15.742188 C 0.00390625 20.426178 0.85608775 21.318359 5.5800781 21.318359 L 23.761719 21.318359 C 28.507042 21.318359 29.335938 20.448845 29.335938 15.742188 L 29.335938 5.578125 C 29.335938 0.77280139 28.484376 0.001953125 23.761719 0.001953125 L 5.5800781 0.001953125 z M 9.4746094 4.3457031 C 11.372546 4.3457031 12.989186 5.5509502 13.599609 7.2382813 L 13.599609 7.2402344 C 13.610549 7.2705524 13.620509 7.2994612 13.630859 7.3300781 C 13.94211 8.1621114 14.74492 8.7558594 15.685547 8.7558594 C 15.698877 8.7558594 15.711329 8.7561584 15.724609 8.7558594 C 14.668631 8.9136072 13.859375 9.8239584 13.859375 10.923828 L 13.859375 13.115234 C 13.859375 15.537064 11.896379 17.5 9.4746094 17.5 L 0.70507813 17.5 C 3.1268487 17.5 5.0898438 15.537064 5.0898438 13.115234 L 5.0898438 8.7304688 C 5.0898438 6.3086982 7.052779 4.3457031 9.4746094 4.3457031 z M 20.453125 4.3457031 C 22.351062 4.3457031 23.967746 5.5509502 24.578125 7.2382813 L 24.578125 7.2402344 C 24.589065 7.2705524 24.599025 7.2994612 24.609375 7.3300781 L 24.611328 7.3300781 C 24.922578 8.1621114 25.723434 8.7558594 26.664063 8.7558594 C 26.677393 8.7558594 26.691798 8.7561584 26.705078 8.7558594 C 25.6491 8.9136072 24.837891 9.8239584 24.837891 10.923828 L 24.837891 13.115234 C 24.837891 15.537064 22.874896 17.5 20.453125 17.5 L 11.683594 17.5 C 14.105364 17.5 16.068359 15.537064 16.068359 13.115234 L 16.068359 8.7304688 C 16.068359 6.3086982 18.031294 4.3457031 20.453125 4.3457031 z M 9.4667969 7.0488281 C 8.5395046 7.0488281 7.7890625 7.8012238 7.7890625 8.7285156 L 7.7890625 8.7304688 C 7.7892419 8.840976 7.799799 8.9501163 7.8203125 9.0546875 C 7.9719014 9.8261451 8.6508491 10.408203 9.4667969 10.408203 C 9.4692469 10.408203 9.4721594 10.40631 9.4746094 10.40625 C 10.289121 10.402781 10.966277 9.8207043 11.115234 9.0488281 C 11.135024 8.9460348 11.146305 8.8390027 11.146484 8.7304688 L 11.146484 8.7285156 C 11.146484 7.8012238 10.394088 7.0488281 9.4667969 7.0488281 z M 20.445313 7.0488281 C 19.51802 7.0488281 18.767578 7.8012238 18.767578 8.7285156 L 18.767578 8.7304688 C 18.767758 8.840976 18.778318 8.9501601 18.798828 9.0546875 C 18.950417 9.8261451 19.629365 10.408203 20.445313 10.408203 C 20.447713 10.408203 20.450625 10.40631 20.453125 10.40625 C 21.267637 10.402781 21.944792 9.8207043 22.09375 9.0488281 C 22.11354 8.9460348 22.12482 8.8390027 22.125 8.7304688 L 22.125 8.7285156 C 22.125 7.8012238 21.372605 7.0488281 20.445313 7.0488281 z " />
  </g>
</svg>
