<svg xmlns="http://www.w3.org/2000/svg" width="29" height="21">
  <path
    d="M 7,0 a 7 7 0 0 0 -7 7 v 7 a 7 7 0 0 0 7 7 h 15 a 7 7 0 0 0 7 -7 V 7 a 7 7 0 0 0 -7 -7 Z M 11,8 c 0,-2.5 2,-4 4,-4 c 2,0 3.4,1.2 4,3 c 0.3,0.9 1,1.3 2,1.5 -1,0.2 -2,1 -2,2 v 2.5 c 0,2.5 -2,4 -4,4 h -8 c 2.5,-0.5 4,-3 4,-5 z m 3,0 a 1.5 1.5 0 0 0 1.5 1.5 a 1.5 1.5 0 0 0 1.5 -1.5 a 1.5 1.5 0 0 0 -1.5 -1.5 a 1.5 1.5 0 0 0 -1.5 1.5 z"
    style="fill:#000;fill-opacity:1;fill-rule:nonzero;stroke:none;stroke-width:1" />
</svg>
