<?xml version="1.0" encoding="UTF-8" standalone="no"?>
<svg
   width="29"
   height="21"
   version="1.1"
   id="svg188"
   sodipodi:docname="penguins.svg"
   inkscape:version="1.2.2 (b0a84865, 2022-12-01)"
   xmlns:inkscape="http://www.inkscape.org/namespaces/inkscape"
   xmlns:sodipodi="http://sodipodi.sourceforge.net/DTD/sodipodi-0.dtd"
   xmlns="http://www.w3.org/2000/svg"
   xmlns:svg="http://www.w3.org/2000/svg">
  <defs
     id="defs192" />
  <sodipodi:namedview
     id="namedview190"
     pagecolor="#ffffff"
     bordercolor="#000000"
     borderopacity="0.25"
     inkscape:showpageshadow="2"
     inkscape:pageopacity="0.0"
     inkscape:pagecheckerboard="0"
     inkscape:deskcolor="#d1d1d1"
     showgrid="false"
     inkscape:zoom="11.0625"
     inkscape:cx="15.367232"
     inkscape:cy="11.525424"
     inkscape:window-width="1645"
     inkscape:window-height="793"
     inkscape:window-x="0"
     inkscape:window-y="25"
     inkscape:window-maximized="0"
     inkscape:current-layer="svg188" />
  <path
     d="M 5,0 q -5,0 -5,5 v 11 q 0,5 5,5 h 19 q 5,0 5,-5 V 5 q 0,-5 -5,-5 Z m 4.4746094,4.3457031 c 1.8979366,0 3.5145766,1.2052471 4.1249996,2.8925782 v 0.00195 c 0.01094,0.030318 0.0209,0.059227 0.03125,0.089844 0.311251,0.8320333 1.114061,1.4257813 2.054688,1.4257813 0.01333,0 0.02578,2.99e-4 0.03906,0 -1.055978,0.1577478 -1.865234,1.068099 -1.865234,2.1679684 v 2.191406 c 0,2.42183 -1.962996,4.384766 -4.3847656,4.384766 H 0.70507813 C 3.1268487,17.5 5.0898438,15.537064 5.0898438,13.115234 V 8.7304688 c 0,-2.4217706 1.9629352,-4.3847657 4.3847656,-4.3847657 z m 10.9785156,0 c 1.897937,0 3.514621,1.2052471 4.125,2.8925782 v 0.00195 c 0.01094,0.030318 0.0209,0.059227 0.03125,0.089844 h 0.002 c 0.31125,0.8320333 1.112106,1.4257813 2.052735,1.4257813 0.01333,0 0.02773,2.99e-4 0.04102,0 -1.055978,0.1577478 -1.867187,1.068099 -1.867187,2.1679684 v 2.191406 c 0,2.42183 -1.962995,4.384766 -4.384766,4.384766 h -8.769531 c 2.42177,0 4.384765,-1.962936 4.384765,-4.384766 V 8.7304688 c 0,-2.4217706 1.962935,-4.3847657 4.384766,-4.3847657 z M 9.4667969,7.0488281 c -0.9272923,0 -1.6777344,0.7523957 -1.6777344,1.6796875 v 0.00195 c 1.794e-4,0.1105072 0.010737,0.2196475 0.03125,0.3242187 0.1515889,0.7714576 0.8305366,1.3535157 1.6464844,1.3535157 0.00245,0 0.00536,-0.0019 0.00781,-0.002 0.8145111,-0.0035 1.4916671,-0.5855459 1.6406251,-1.3574221 0.01979,-0.1027933 0.03107,-0.2098254 0.03125,-0.3183593 v -0.00195 c 0,-0.9272918 -0.752396,-1.6796875 -1.6796876,-1.6796875 z m 10.9785161,0 c -0.927293,0 -1.677735,0.7523957 -1.677735,1.6796875 v 0.00195 c 1.8e-4,0.1105072 0.01074,0.2196913 0.03125,0.3242187 0.151589,0.7714576 0.830537,1.3535157 1.646485,1.3535157 0.0024,0 0.0053,-0.0019 0.0078,-0.002 0.814512,-0.0035 1.491667,-0.5855459 1.640625,-1.3574221 0.01979,-0.1027933 0.03107,-0.2098254 0.03125,-0.3183593 v -0.00195 c 0,-0.9272918 -0.752395,-1.6796875 -1.679687,-1.6796875 z"
     style="fill:#000000;fill-opacity:1;fill-rule:nonzero;stroke:none;stroke-width:1.33333"
     id="path186"
     sodipodi:nodetypes="cssssssscsscccscssscssssccccscssscsssssccscccssssscsccssscs" />
</svg>
